<?xml version="1.0" encoding="utf-8"?>
<!-- Generator: Adobe Illustrator 27.9.0, SVG Export Plug-In . SVG Version: 6.00 Build 0)  -->
<svg version="1.1" id="Слой_1" xmlns="http://www.w3.org/2000/svg" xmlns:xlink="http://www.w3.org/1999/xlink" x="0px" y="0px"
	 viewBox="0 0 1000 1000" style="enable-background:new 0 0 1000 1000;" xml:space="preserve">
<g>
	<path d="M852.59,830.38c-0.4,1.26-0.43,2.89-1.27,3.73c-9.76,9.78-19.08,20.11-29.73,28.87c-5.53,4.54-10.06,10.38-16.73,13.72
		c-2.08,1.04-3.35,3.67-4.99,5.57c-3.86-0.26-5.48,2.41-7.03,5.19c-2.73-0.28-4.58,0.73-5.27,3.46c-0.59,0.58-1.17,1.15-1.76,1.73
		c-1.33,0.26-3.36-0.86-3.51,1.73c-0.59,0.58-1.17,1.15-1.76,1.73c-1.33,0.26-3.36-0.86-3.42,1.81c-0.02-0.03-0.14-0.15-0.25-0.26
		c-0.48,0.4-0.96,0.8-1.44,1.21c0.18,0.18,0.37,0.36,0.55,0.55c0.41-0.47,0.82-0.94,1.13-1.49c1.24-0.34,3.27,0.78,3.42-1.81
		c0.59-0.58,1.17-1.15,1.76-1.73c1.33-0.26,3.36,0.86,3.51-1.73c0.59-0.58,1.17-1.15,1.76-1.73c2.73,0.28,4.58-0.73,5.27-3.46
		c3.86,0.26,5.48-2.41,7.03-5.19c1.09-0.2,2.43-0.07,3.22-0.66c13.35-9.91,25.57-21.06,37.14-32.93c2.52-2.59,4.66-5.68,8.52-6.86
		c1.24-0.38,2.47-1.77,3.06-2.99c1.21-2.54,2.61-4.27,5.46-5.58c2.74-1.26,5.34-3.92,6.76-6.6c1.8-3.38,4.43-5.8,7.02-8.35
		c11.65-11.47,21.38-24.41,31.32-37.3c9.25-11.99,16.07-25.21,23.93-37.9c3.41-5.51,6.52-11.2,9.98-16.67
		c5.18-8.21,9.78-16.66,13.01-25.84c1.59-4.52,3.87-8.83,5.86-13.16c4.06-8.82,6.24-18.2,9.87-27.12
		c4.57-11.23,6.62-23.2,10.14-34.75c1.07-3.52,1.72-7.47,2.09-11.25c0.77-7.67,4.25-14.91,3.61-22.77
		c2.84-3.46,1.31-7.57,1.79-11.39c0.41-3.24,1.3-6.43,1.67-9.67c0.38-3.27,0.49-6.42,1.49-9.75c1.28-4.24,0.1-9.15,0.36-13.74
		c0.4-6.98,1.35-13.93,1.64-20.91c0.29-6.84,0.06-13.7,1.21-20.66c0.79,5.45,1.9,10.89,2.28,16.37c0.4,5.74,0.09,11.52,0.09,17.29
		c0,6.05,0.32,12.13-0.09,18.15c-0.38,5.53,0.65,10.96-1.3,16.7c-1.8,5.3-0.26,11.52-1.93,17.38c-1.5,5.27-1.19,11.02-2,16.52
		c-0.83,5.63-2.91,11-3.58,16.72c-0.63,5.35-2.02,10.64-3.46,15.86c-1.49,5.41-2.6,10.88-4.94,16.14
		c-2.17,4.86-2.12,10.64-4.08,15.63c-2.06,5.25-3.41,10.74-5.58,15.88c-2.08,4.92-3.14,10.15-5.88,14.93
		c-2.75,4.8-3.73,10.56-5.89,15.73c-2.05,4.93-4.62,9.64-6.97,14.45c-2.44,5-4.87,10.01-7.75,15.91c2.35-0.94,3.68-1.47,5.55-2.22
		c-1.24,6.18-5.35,10.17-8.05,14.87c-4.88,8.5-12.29,15.39-16.16,24.54c-0.21,0.49-0.73,0.97-1.23,1.21
		c-8.33,4.03-11.44,12.49-15.71,19.47c-3.95,6.46-9.51,11.46-13.45,17.79c-4.86,7.8-12.1,13.65-18.55,20.12
		c-4.75,4.76-9.11,9.69-12.8,15.47c-3.64,5.71-9.53,10.05-14.57,14.85c-1.57,1.49-3.95,2.19-5.39,3.76
		c-10.17,11.04-22.96,18.84-35.15,27.31c-3.84,2.67-7.43,5.73-11.49,8.08c-4.08,2.36-7.91,5-11.66,7.87
		c-4.98,3.8-10.46,6.99-15.89,10.18c-4.66,2.74-9.45,5.34-14.37,7.59c-5.15,2.35-10.6,4.06-15.78,6.34
		c-3.22,1.42-6.13,3.5-9.27,5.11c-10.34,5.3-20.47,11.09-31.94,13.86c-5.7,4.45-13.01,5.47-19.49,7.95
		c-6.18,2.37-13.12,3.63-19.45,6c-9.73,3.65-20.12,4.75-29.89,8.28c-3.2,1.15-7.06,0.83-10.64,1.83c-4.53,1.27-10.1,0.19-13.91,2.36
		c-4.31,2.46-9.05-0.56-13.04,2.77c-1.53,1.28-5.12-0.02-7.72,0.27c-2.43,0.27-4.77,1.43-7.19,1.6c-9.7,0.72-19.61,0.27-29.09,2.06
		c-9.21,1.74-18.3,1.19-27.44,1.41c-9.07,0.22-18.16,0.22-27.23-0.03c-4.16-0.12-8.29-1.31-12.46-1.59
		c-4.37-0.29-9.11,0.94-13.09-0.32c-5.12-1.62-10.11-1.12-15.16-1.54c-2.72-0.23-5.37-1.11-8.06-1.66c-2.97-0.6-5.95-1.19-8.94-1.73
		c-2.71-0.49-5.3-0.07-8.22-1.38c-3.56-1.59-8.17-1.17-12.33-1.8c-9.04-1.37-17.76-3.98-26.55-6.09
		c-14.76-3.54-29.28-8.12-43.58-13.26c-6.86-2.47-13.58-5.32-20.39-7.9c-16.23-6.15-31.43-14.46-46.86-22.22
		c-7.99-4.02-15.65-8.91-23.33-13.63c-8.86-5.45-17.53-11.17-26.23-16.83c-6.28-4.09-11.95-9.09-18.15-13.31
		c-9.79-6.67-17.81-15.4-27.52-22.17c-4-2.79-7.12-6.82-10.64-10.28c-4.97-4.89-9.91-9.81-14.92-14.67
		c-7.73-7.5-14.57-15.74-21.17-24.21c-3.82-4.9-8.33-9.27-12.35-14.02c-11.23-13.27-22.43-26.52-30.75-41.92
		c-3.86-7.15-8.93-13.66-13.35-20.52c-1.6-2.48-2.89-5.16-4.38-7.72c-5.55-9.56-10.83-19.27-16.48-28.78
		c-2.74-4.61-3.82-10.48-6.11-15.62c-0.65-1.47-1.52-2.84-2.24-4.27c-3.04-6.01-7.06-11.67-6.54-18.71
		c-2.62-1.03-4.38-1.86-5.43-4.8c-3.72-10.33-5.33-21.33-10.29-31.25c0.87-5.73-2.71-10.49-3.92-15.76
		c-1.17-5.09-2.92-10.29-4.48-15.38c-1.08-3.5-1.93-7.47-2.08-11.24c-0.17-4.48-3.07-8.5-1.94-13.1c-4.2-3.31,0.67-9.09-3.48-12.42
		c0-4.9-0.08-9.8,0.02-14.7c0.14-7.24,0.19-14.45-3.34-21.13c-0.24-0.46-0.19-1.1-0.18-1.65c0.19-10.18-3.03-20.18-1.73-30.41
		c0.38-2.96,1.26-5.85,1.69-8.8c0.39-2.7-0.84-5.72,1.79-7.93c0-5.96,0-11.92,0-19.84c-1.46,3.07-2.01,4.22-3.17,6.65
		c-0.16-2.89-0.99-5.12-0.22-6.03c3.29-3.9,0.86-8.63,2.46-12.87c1.43-3.79,0.3-8.44,1.03-12.59c0.8-4.51,1.13-9.15,2.92-13.48
		c1.36-3.29,0.38-6.88,1.96-10.45c1.82-4.14,0.97-9.32,2.14-13.84c2.72-10.5,3.61-21.3,6.54-31.85
		c3.46-12.43,6.92-24.85,10.99-37.08c2.87-8.61,5.92-17.19,9.53-25.51c5.33-12.24,10.33-24.66,16.81-36.38
		c6.51-11.8,12.84-23.68,20.19-35.05c4.28-6.63,8.56-13.24,13.09-19.72c5.5-7.88,10.92-15.82,16.92-23.35
		c6.42-8.05,12.68-16.22,19.31-24.1c4.99-5.94,10.44-11.51,15.88-17.46c0.58,1.61,0.94,2.61,1.47,4.09c3.69-3.75,7-7.36,10.57-10.7
		c8.17-7.62,16-15.7,24.83-22.51c13.16-10.15,25.27-21.73,40.25-29.49c11.36-10.64,26.27-16.1,38.5-25.55
		c3.74-2.89,8.99-3.79,13.08-6.33c7.86-4.88,16.23-9.01,24.54-12.74c10.54-4.72,21.05-9.78,32.09-13.49
		c5.64-1.89,11.19-4.02,16.76-6.1c5.62-2.09,11.18-4.06,17.16-5.31c5.15-1.07,10.4-3.02,15.4-5c5.89-2.33,12.16-2.95,18.12-4.94
		c6.98-2.33,14.7-2.03,21.5-5.3c5.24,1.18,9.97-1.7,15.08-1.82c2.99-0.07,5.95-1.1,8.94-1.63c3-0.52,6.33,1.21,9.05-1.59
		c0.57-0.58,2.24-0.19,3.4-0.15c9.78,0.39,19.49-1.28,29.1-2.21c9.48-0.91,18.88-0.97,28.31-1.21c9.66-0.24,19.33-0.22,28.99,0.03
		c4.16,0.11,8.29,1.29,12.46,1.59c4.08,0.29,8.54-0.93,12.21,0.3c5.11,1.72,10.21,0.69,15.15,1.6c10.95,2.02,22.15,2.78,32.91,5.35
		c6.63,1.58,13.42,2.59,20.05,4.32c6.32,1.65,13.1,2.68,19.32,4.42c9.09,2.55,18.34,4.95,27.2,8.33c8.57,3.27,17.25,6.25,25.72,9.88
		c5.67,2.44,11.32,4.6,15.43,9.01c2,2.15,4.36,1.06,6.15,2.32c8.48,5.96,18.87,8.32,27.34,14.5c4.96,3.62,10.97,5.87,16.42,8.97
		c11.21,6.38,22.07,13.22,32.56,20.61c8.21,5.79,16.01,12.22,24.17,17.99c9.95,7.04,17.76,16.42,28.05,22.91
		c-0.41,4,4.2,2.81,5.65,5.31c1.54,2.66,4.39,4.58,6.67,6.82c2.07,2.04,4.25,3.98,6.19,6.14c3.4,3.76,6.64,7.66,9.97,11.49
		c3.14,3.61,6.87,6.57,9.52,10.78c2.64,4.19,6.57,7.69,9.9,11.5c6.42,7.34,11.44,15.59,17.3,23.28
		c6.79,8.92,12.02,18.83,18.51,27.93c1.38,1.93,1.98,4.39,3.18,6.47c9.56,16.5,18.4,33.39,26.55,50.58
		c4.34,9.17,9.2,18.36,9.81,28.89c0.1,1.75,1.24,3.52,2.16,5.14c3.74,6.55,6.15,13.63,8.87,20.6c1.53,3.91,0.72,8.04,2.78,11.85
		c1.88,3.47,2.38,7.65,3.69,11.45c1.95,5.62,3.41,11.36,4.47,17.19c1.02,5.58,1.81,11.2,2.33,16.84
		c-3.56-5.56-4.91-11.45-5.37-21.66c-3.47-0.25-3.88-3.3-4.91-5.57c-1.79-3.93-2.24-8.29-3.38-12.43
		c-2.21-8.03-4.32-16.05-7.14-23.92c-2.8-7.8-4.31-16.03-8.61-23.31c-0.64-1.09-0.37-2.69-0.59-4.59c-0.88,0.65-1.43,1.05-2.53,1.87
		c-0.24-1.3-0.45-2.38-0.74-3.55c0.02,0.03,0.14,0.15,0.25,0.26c0.48-0.4,0.96-0.8,1.44-1.21c-0.18-0.18-0.37-0.36-0.55-0.55
		c-0.41,0.47-0.82,0.94-1.13,1.49c-3.74-3.78-5.26-8.91-7.57-13.59c-4.03-8.15-7.42-16.61-11.75-24.6
		c-7.43-13.72-14.5-27.76-23.34-40.57c-7.36-10.67-14.14-22.01-23.96-30.94c-3.97-7.97-12.43-12.19-16.99-19.84
		c-1.84-3.09-6.1-4.78-9.57-7.35c0.68-0.89,1.09-1.44,2.02-2.66c-2.95-2.17-5.96-4.42-9.01-6.62c-2.01-1.46-4.27-2.65-6.06-4.33
		c-4.88-4.57-9.61-9.29-14.32-14.03c-9.02-9.07-19.2-16.85-28.8-25.26c-8.91-7.8-18.76-14.27-27.95-21.64
		c-6.53-5.24-14.19-9.18-21.57-13.31c-9.91-5.55-19.68-11.35-30.27-15.71c-8.24-3.4-15.94-8.05-24.21-11.37
		c-8.26-3.32-16.82-6.16-24.93-9.64c-10.25-4.4-20.91-7.44-31.35-11.07c-9.76-3.39-20.25-4.68-30.13-7.79
		c-6.55-2.06-13.62-1.88-19.83-5.03c-5.24,1.17-9.97-1.69-15.08-1.82c-2.99-0.08-5.95-1.11-8.94-1.63c-3-0.52-6.41,1.27-9.01-1.62
		c-0.27-0.3-1.11-0.1-1.68-0.12c-4.79-0.12-9.7,0.67-14.21-1.73c-11.86,1.27-23.46-2.13-35.29-1.8c-11.7,0.33-23.51-0.79-35.1,0.38
		c-7.69,0.78-15.48,0.45-22.96,1.75c-4.8,0.83-9.75,0.34-14.19,1.66c-4.53,1.34-9.19,0.43-13.34,1.68
		c-7.12,2.15-14.87,1.45-21.6,4.99c-9.06-0.28-17.37,3.25-25.88,5.39c-13.13,3.29-26.08,7.5-38.81,12.08
		c-5.81,2.09-11.7,4.13-17.42,6.62c-5.67,2.47-11.01,5.79-17.2,7.18c-1.3,0.29-2.23,2.18-3.33,3.33
		c-5.94,0.45-13.39,4.12-17.55,9.32c0,0.17-0.03-0.32-0.05-0.82c-1.14,0.22-2.29,0.44-3.43,0.66c0.05,0.37,0.1,0.75,0.14,1.12
		c1.12-0.09,2.25-0.19,3.35-0.96c6.42-2.39,12.28-5.28,17.55-9.32c5.78-0.55,10.7-4.95,17.02-3.24c0.28-1.13,0.48-1.9,0.77-3.06
		c13.09-6.13,27.07-10.77,42.1-15.02c-1.83,4.79-5.77,5.39-8.43,7.49c-0.75,0.59-1.51,1.16-2.26,1.73c-1.73,0.66-4.45-1.6-5.27,1.73
		c-1.73,0.66-4.45-1.6-5.27,1.73c-1.67,0.2-3.5,0.03-4.98,0.66c-10.17,4.3-20.56,8.02-30.68,12.48c-10.66,4.7-21.2,9.42-31.24,15.33
		c-3.88,2.28-8.55,3.27-13.17,4.96c-2.57,1.86-5.46,4.04-8.44,6.1c-5.65,3.9-10.94,8.6-17.11,11.39
		c-10.55,4.77-18.97,12.25-27.8,19.19c-7.62,5.98-14.48,12.9-21.66,19.4c-0.64,0.58-1.13,1.45-1.88,1.79
		c-5.95,2.67-9.58,7.72-13.51,12.48c-0.59,0.58-1.17,1.15-1.76,1.73s-1.17,1.15-1.76,1.73s-1.17,1.15-1.76,1.73
		s-1.17,1.15-1.67,1.81c-0.02-0.03-0.14-0.15-0.25-0.26c-0.48,0.4-0.96,0.8-1.44,1.21c0.18,0.18,0.37,0.36,0.55,0.55
		c0.41-0.47,0.82-0.94,1.13-1.49c0.49-0.65,1.08-1.23,1.67-1.81s1.17-1.15,1.76-1.73s1.17-1.15,1.76-1.73s1.17-1.15,1.76-1.73
		c0.88,0,1.75,0,2.31,0c8.74-7.52,17.3-14.87,26-22.09c8.39-6.96,17.31-13.2,25.89-19.89c4.94-3.85,10.43-7.04,15.75-10.41
		c6.21-3.93,12.64-7.54,18.74-11.63c8.59-5.76,18.47-9.32,26.76-15.54c4.37,0.2,6.96-2.84,10.22-4.95c3.3-2.14,7.6-2.72,11.22-4.47
		c6.32-3.06,13.01-5.25,19.37-8.1c4.74-2.12,10.54-2.34,14.2-6.69c1.73-0.66,4.45,1.6,5.27-1.73c1.73-0.66,4.45,1.6,5.27-1.73
		c5.94,0.15,11.13-3.02,16.89-3.76c2.03-0.26,3.93-1.54,5.89-2.36c-0.41-0.41-0.83-0.82-1.6-1.58c3.92-2.16,8.08-3.84,11.46-6.48
		c4.17-3.27,9.25-3.28,13.87-4.68c4.49-1.37,9.66-0.62,14.09-2.1c4.51-1.51,9.34-0.29,13.28-1.82c4.61-1.8,9.3-0.14,13.37-1.64
		c5.38-1.98,10.86-0.5,16.01-1.67c12.91-2.94,25.9-1.17,38.84-1.51c12.88-0.34,25.77-0.21,38.65,0c4.16,0.07,8.32,0.96,12.45,1.68
		c3.85,0.67,8.05-1.68,11.68,1.59c0.8,0.72,2.83,0.14,4.29,0.1c3.97-0.1,7.76,0.32,11.62,1.6c3.36,1.12,7.49-1.13,10.65,1.87
		c8.08-1.18,15.38,2.64,23.09,3.8c7.7,1.16,15.39,3.54,23.02,5.63c13.6,3.73,26.96,8.17,40.22,12.98
		c8.65,3.14,17.31,6.12,25.6,10.17c6.78,3.31,14.31,5.27,20.74,9.1c11.94,7.1,24.52,13.02,36.19,20.7
		c11.28,7.42,21.81,15.85,33.29,22.99c5.01,3.11,8.89,7.92,13.68,11.44c19.58,14.39,35.91,32.17,53.11,49.03
		c5.59,5.48,10.44,11.65,15.08,17.99c2.97,4.05,7.05,7.22,9.94,11.52c4.77,7.09,10.45,13.58,15.36,20.59
		c5.3,7.56,10.13,15.44,15.23,23.11c3.55,5.33,5.6,11.01,8.14,16.63c1.21,2.68,2.13,5.77,4.12,7.78c5,5.05,7.86,11.07,9.94,17.63
		c0.24,0.75,0.78,1.41,1.14,2.13c5.28,10.55,8.5,21.95,13.23,32.65c3.81,8.64,5.65,17.81,9.53,26.4c3.07,6.79,3.86,14.54,6.01,21.76
		c2.86,9.6,3.79,19.61,6.83,29.19c1.48,4.67,0.2,10.35,2.18,14.68c2.8,6.13-0.68,12.93,3.23,18.59c0.14,0.2,0.03,0.57,0.02,0.85
		c-0.5,15.08,3.2,30.01,1.7,45.11c-0.48,4.88-1.62,9.69-3.08,14.58c-0.13-1.28-0.35-2.56-0.36-3.85c-0.04-4.9-0.39-9.83,0.06-14.69
		c1.09-11.98-1.76-23.71-2.13-35.6c-0.13-4.25-1.05-8.73-1.63-13.11c-0.54-4.08-0.72-8.43-1.84-12.2
		c-2.96-9.91-3.38-20.3-6.71-30.09c-0.43-1.25-0.06-2.76-0.06-3.61c-1.52-1.11-3.07-1.64-3.42-2.6c-1.95-5.27-3.64-10.63-5.36-15.98
		c-1.97-6.12-3.89-12.25-5.8-18.39c-3.51-11.23-8-22.11-11.82-33.23c-1.21-3.52-2.58-7.05-4.4-10.3c-3.8-6.81-6.32-14.15-9.66-21.14
		c-0.29-0.6-1.13-0.94-1.12-0.87c-2.23-5.27-4.41-9.75-7.2-15.49c0.07,6.71,2.19,11.02,7.2,15.49c-0.6,1.1-0.6,2.73-0.6,6.01
		c-2.48-3.44-4.2-5.41-5.43-7.63c-3.87-6.94-8.32-13.61-10.38-21.4c1.62,1.08,3.24,2.16,6.46,4.3c-1.57-3.25-2.3-4.66-2.94-6.1
		c-3.77-8.5-8.81-16.13-15.82-22.41c-0.59-0.58-1.17-1.15-1.76-1.73c0.28-2.68-0.74-4.51-3.51-5.19c-0.26-1.31,0.87-3.31-1.76-3.46
		c-0.59-0.58-1.17-1.15-1.76-1.73c-0.59-0.58-1.17-1.15-1.84-1.64c0.03-0.02,0.15-0.13,0.26-0.25c-0.41-0.47-0.82-0.94-1.23-1.41
		c-0.18,0.18-0.37,0.36-0.55,0.55c0.48,0.4,0.96,0.8,1.52,1.12c0.67,0.49,1.25,1.06,1.84,1.64c0.59,0.58,1.17,1.15,1.76,1.73
		c0.26,1.31-0.87,3.31,1.76,3.46c0,1.15,0,2.31,0,3.46c-1.53-1.22-3.55-2.15-4.51-3.71c-5.3-8.53-11.95-15.96-18.53-23.53
		c-9.48-10.92-18.42-22.39-29.36-31.87c-11.7-10.14-23.05-20.65-35.24-30.31c-12.22-9.68-25.68-17.61-37.58-27.66
		c-2.22-1.87-5.18-2.89-7.79-4.33c-4.97-2.76-10.17-5.21-14.82-8.43c-3.47-2.4-8.81-0.34-11.09-4.96
		c-4.09-0.41-6.59-3.71-10.02-5.34c-2.92-1.39-5.71-3.43-8.56,0.03c-3.85-1.19-8.02-1.81-11.48-3.7c-6.65-3.63-13.82-5.78-20.84-8.4
		c-9.52-3.56-19.06-7.09-28.56-10.69c-0.34-0.13-0.42-0.93-0.72-1.5c0.02,0.03,0.14,0.15,0.25,0.26c0.48-0.4,0.96-0.8,1.44-1.21
		c-0.18-0.18-0.37-0.36-0.55-0.55c-0.41,0.47-0.82,0.94-1.13,1.49c-1.64-0.58-4.36,1.68-5.2-2.32c0-0.17,0.03,0.32,0.05,0.82
		c1.14-0.22,2.29-0.44,3.43-0.66c-0.05-0.37-0.1-0.75-0.14-1.12c-1.12,0.09-2.25,0.19-3.35,0.96c-3.93,0.8-7.55-0.03-10.52-2.79
		c1.76,0,3.54-0.17,5.26,0.06c1.14,0.15,2.2,0.86,3.35,1.34c0.08-0.94,0.13-1.49,0.23-2.55c-6.03-1.97-11.87-4.75-18.37-5.83
		c-2.66-0.44-5.53-1.02-7.73-2.41c-3.34-2.12-5.28-0.69-7.39,1.66c1.2,0.55,2.37,1.09,5.41,2.49c-4.11-0.18-6.29-0.15-8.44-0.43
		c-1.32-0.17-2.55-0.92-3.86-1.23c-3.24-0.76-6.58,0.99-9.98-1.53c-2.11-1.56-6.22,0.91-8.81-1.91c-0.26-0.29-1.13,0-1.71-0.04
		c-6.79-0.57-13.58-1.06-20.35-1.76c-3.3-0.34-6.28-2.01-9.83-1.84c-2.94,0.14-5.97-0.94-8.92-1.62c-1.03-0.24-1.97-0.91-2.51-1.17
		c-11.83,3.54-23.34-0.47-34.49-0.69c-4.71,2.39-9.06,4.6-13.94,7.09c-3.44,0-7.57,0.35-11.62-0.07
		c-10.14-1.04-20.16,0.77-29.98,2.14c-11.38,1.59-22.8,3.74-34.11,6.24c-13.11,2.9-26.01,6.35-38.97,9.79
		c-11.86,3.15-23.11,7.81-34.54,11.97c-17.79,6.48-34.81,14.86-51.53,23.65c-14.75,7.75-29,16.49-42.59,26.04
		c-9.59,6.74-19.21,13.58-27.96,21.55c-8.57,7.8-18.23,14.46-26.34,22.8c-3.53,3.63-6.59,7.7-9.89,11.61
		c0.48,0.72,1.04,1.57,1.42,2.13c-2.47,2.21-4.8,4.29-7.12,6.37c0.35,0.35,0.7,0.7,1.05,1.05c-1.75,0-3.51,0-5.1,0
		c-2.79,3.85-5.38,7.73-8.28,11.36c-3.15,3.96-6.75,7.58-9.87,11.56c-9.21,11.72-18.83,23.17-26.82,35.76
		c-6.08,9.58-11.58,19.52-17.66,29.1c-7.95,12.53-13.06,26.39-19.52,39.61c-7.89,16.15-12.38,33.56-19.1,50.15
		c0.52,4.86-2.38,8.84-3.43,13.29c-0.99,4.2-1.15,8.6-3.58,12.39c1.01,7.37-3.03,13.88-3.88,21c-0.48,4.05-0.41,8.43-1.65,12.22
		c-1.28,3.88-0.33,8.04-1.74,11.38c-2.92,6.92-1.04,14.17-2.89,21.24c-1.83,7.03-0.4,14.89-0.4,22.38s0,14.99,0,22.48
		c0,7.49,0.08,14.99-0.03,22.48c-0.06,4.2,2.58,7.86,1.92,12.27c-0.56,3.78-0.82,7.85,1.63,11.37c-1.3,5.72,1.08,11.12,1.98,16.54
		c1.68,10.13,3.47,20.28,6.03,30.31c1.87,7.31,4.52,14.46,5.87,21.82c1.67,9.1,5.27,17.49,8.17,26.12
		c4.32,12.9,9.91,25.34,15.32,37.85c2.87,6.65,5.9,13.21,9.48,19.47c5.63,9.83,10.78,19.91,17.13,29.4
		c5.6,8.37,10.76,17.02,16.84,25.09c2.46,3.27,4.46,6.89,7,10.1c14.07,17.76,30.18,33.69,46.59,49.32
		c7.46,7.1,14.73,14.54,22.97,20.66c11.12,8.26,21.08,18.03,33.44,24.74c4.14,2.25,7.53,5.91,11.13,9.06
		c6.48,5.67,13.35,10.77,21.01,14.81c2.16,1.14,4.43,2.14,6.4,3.55c11.6,8.25,25.31,12.29,38.11,18.05
		c7.83,3.53,15.62,7.35,23.85,10.13c7.93,2.67,15.4,6.88,23.46,8.88c10.86,2.69,21.08,7.27,32.02,9.61
		c5.85,1.25,11.55,3.2,17.37,4.6c2.19,0.52,4.57,0.21,6.81,0.58c2.14,0.35,4.18,1.31,6.32,1.64c4.71,0.71,9.45,1.43,14.21,1.71
		c4.96,0.29,9.95,0.14,14.93,0.05c7.36-0.14,14.34,1.54,21.5,3.02c5.06,1.04,10.43,2.36,15.86,2.23c7.32-0.18,14.64-0.17,21.96-0.01
		c9.19,0.19,18.14-3.04,27.39-1.76c3.89-2.41,8.52-0.74,12.37-1.96c4.23-1.34,8.57-0.57,12.45-1.75c3.35-1.03,7.57-0.13,9.66-1.76
		c3.44-2.7,7.39,0.16,10.52-2.52c2.55-2.19,6.96,1.04,9.5-2.38c13.73-0.27,26.01-6.84,39.37-8.91c2.78-0.43,6.2-1.38,8.95-3.88
		c2.61-2.38,6.73-3.3,10.34-4.38c1.3-0.39,3.05,0.65,4.67,1.06c24.87-9.17,48.99-20.75,72.26-34.04
		c23.62-13.49,46.49-27.99,67.58-47.7c-0.8,2.44-0.84,3.85-1.57,4.62c-5.66,5.9-11.99,11.01-18.9,15.5
		c-2.53,1.64-4.23,4.51-6.31,6.81c-3.86-0.26-5.48,2.41-7.03,5.19c-2.73-0.28-4.58,0.73-5.27,3.46c-2.73-0.28-4.58,0.73-5.27,3.46
		c-5.52,1.42-14.91,7.31-19.33,12.11c-1.33,0.26-3.36-0.86-3.51,1.73c-2.73-0.28-4.58,0.73-5.27,3.46
		c-1.33,0.26-3.36-0.86-3.51,1.73c-1.33,0.26-3.36-0.86-3.51,1.73c-1.33,0.26-3.36-0.86-3.42,1.81c-0.02-0.03-0.14-0.15-0.25-0.26
		c-0.48,0.4-0.96,0.8-1.44,1.21c0.18,0.18,0.37,0.36,0.55,0.55c0.41-0.47,0.82-0.94,1.13-1.49c1.24-0.34,3.27,0.78,3.42-1.81
		c1.33-0.26,3.36,0.86,3.51-1.73c1.33-0.26,3.36,0.86,3.51-1.73c2.73,0.28,4.58-0.73,5.27-3.46c1.33-0.26,3.36,0.86,3.51-1.73
		c5.52-1.42,14.91-7.31,19.33-12.11c2.73,0.28,4.58-0.73,5.27-3.46c2.73,0.28,4.58-0.73,5.27-3.46c3.86,0.26,5.48-2.41,7.03-5.19
		c1.29-0.41,2.83-0.5,3.83-1.27c3.8-2.92,7.38-6.1,11.16-9.05c0.54-0.42,1.71-0.06,2.59-0.06c-2.7,3.97-6.18,6.94-10.36,9.55
		c-7.04,4.4-13.41,9.82-20.28,14.48c-9.73,6.6-20.5,11.63-29.75,18.97c-6.3,0.54-10.38,5.65-16.16,7.52
		c-5.34,1.73-9.97,5.44-15.19,7.68c-17.84,7.66-35.7,15.3-54.2,21.4c-9,2.97-18.14,5.66-27.22,8.19c-7.57,2.11-15.39,3.9-23.15,5.6
		c-2.68,0.59-5.57,0.71-8.01,1.82c-7.16,3.24-14.72,4.35-22.43,5.18c-3.86,0.41-7.48,2.09-11.58,1.75
		c-3.89-0.32-7.97-0.77-11.58,1.6c-0.4,0.27-1.15,0.05-1.73,0.03c-19.11-0.64-38.08,3.01-57.21,1.76c-1.89-0.12-3.82,0.17-5.72,1.49
		c1.65,0.07,3.3,0.2,4.95,0.2c15.51,0.02,31.02,0.14,46.52-0.07c4.45-0.06,8.87-1.14,13.32-1.63c4.17-0.46,8.62,1.15,12.44-1.75
		c5.8,1.26,11.22-1.27,16.8-1.92c4.81-0.57,9.68-1.97,14.44-2.92c5.67-1.13,11.28-2.49,16.93-3.7c11.74-2.52,23.04-6.53,34.62-9.51
		c8.45-2.18,16.48-5.53,24.67-8.25c7.82-2.6,15.54-6.18,23.26-9.32c5-2.03,9.88-4.37,14.78-6.58c2.03-0.91,3.81-0.78,5.72-1.04
		c-0.59,1.15-1.17,2.31-1.76,3.46c-4.3,0.19-7.52,2.5-10.54,5.19c-1.33,0.26-3.36-0.86-3.51,1.73c-1.73,0.66-4.45-1.6-5.27,1.73
		c-1.33,0.26-3.36-0.86-3.51,1.73c-1.73,0.66-4.45-1.6-5.25,2.4c0,0.17-0.03-0.32-0.05-0.82c-1.14,0.22-2.29,0.44-3.43,0.66
		c0.05,0.37,0.1,0.75,0.14,1.12c1.12-0.09,2.25-0.19,3.35-0.96c1.71-1.33,4.42,0.93,5.25-2.4c1.33-0.26,3.36,0.86,3.51-1.73
		c1.73-0.66,4.45,1.6,5.27-1.73c1.33-0.26,3.36,0.86,3.51-1.73c4.43,0.07,8.35-0.85,10.54-5.19c2.24-0.09,4.12-0.25,6.35-1.66
		c9.87-6.23,19.42-12.84,29.98-18.17c12.38-6.25,24.33-13.58,35.54-22.04c8.95-6.75,17.76-13.56,26.39-20.7
		c5.05-4.19,9.65-8.77,14.59-13.03c3.84-3.31,7.82-6.46,11.65-9.79C845.44,836.94,848.99,833.63,852.59,830.38z M139.11,202.49
		c-0.59,0.58-1.17,1.15-1.76,1.73c-0.59,0.58-1.17,1.15-1.76,1.73c-2.63,0.15-1.49,2.15-1.76,3.46c-0.59,0.58-1.17,1.15-1.76,1.73
		c-0.59,0.58-1.17,1.15-1.76,1.73c-2.63,0.15-1.49,2.15-1.76,3.46c-0.59,0.58-1.17,1.15-1.76,1.73c-2.77,0.68-3.8,2.51-3.51,5.19
		c-0.59,0.58-1.17,1.15-1.76,1.73c-2.63,0.15-1.49,2.15-1.76,3.46c-0.59,0.58-1.17,1.15-1.76,1.73c-2.63,0.15-1.49,2.15-1.76,3.46
		c-2.77,0.68-3.8,2.51-3.51,5.19c-2.77,0.68-3.8,2.51-3.33,5.35c-0.11-0.11-0.23-0.23-0.34-0.34c-0.48,0.4-0.96,0.8-1.44,1.21
		c0.18,0.18,0.37,0.36,0.55,0.55c0.41-0.47,0.82-0.94,1.04-1.57c2.77-0.68,3.8-2.51,3.51-5.19c2.77-0.68,3.8-2.51,3.51-5.19
		c2.63-0.15,1.49-2.15,1.76-3.46c0.59-0.58,1.17-1.15,1.76-1.73c2.63-0.15,1.49-2.15,1.76-3.46c0.59-0.58,1.17-1.15,1.76-1.73
		c2.77-0.68,3.8-2.51,3.51-5.19c0.59-0.58,1.17-1.15,1.76-1.73c2.63-0.15,1.49-2.15,1.76-3.46c0.59-0.58,1.17-1.15,1.76-1.73
		c0.59-0.58,1.17-1.15,1.76-1.73c2.63-0.15,1.49-2.15,1.76-3.46c0.59-0.58,1.17-1.15,1.76-1.73c0.59-0.58,1.17-1.15,1.57-1.89
		c0.11,0.11,0.23,0.23,0.34,0.34c0.48-0.4,0.96-0.8,1.44-1.21c-0.18-0.18-0.37-0.36-0.55-0.55
		C139.74,201.39,139.33,201.86,139.11,202.49z M105.9,249.35c-0.11-0.11-0.23-0.23-0.34-0.34c-0.48,0.4-0.96,0.8-1.44,1.21
		c0.18,0.18,0.37,0.36,0.55,0.55c0.41-0.47,0.82-0.94,0.86-1.73c0.11,0.11,0.23,0.23,0.34,0.34c0.48-0.4,0.96-0.8,1.44-1.21
		c-0.18-0.18-0.37-0.36-0.55-0.55C106.35,248.1,105.94,248.57,105.9,249.35z M142.62,197.3c0.59-0.58,1.17-1.15,1.57-1.89
		c0.11,0.11,0.23,0.23,0.34,0.34c0.48-0.4,0.96-0.8,1.44-1.21c-0.18-0.18-0.37-0.36-0.55-0.55c-0.41,0.47-0.82,0.94-1.04,1.57
		c-0.59,0.58-1.17,1.15-1.57,1.89c-0.11-0.11-0.23-0.23-0.34-0.34c-0.48,0.4-0.96,0.8-1.44,1.21c0.18,0.18,0.37,0.36,0.55,0.55
		C141.99,198.4,142.4,197.93,142.62,197.3z M882.3,213.05c0.11-0.11,0.23-0.23,0.34-0.34c-0.41-0.47-0.82-0.94-1.22-1.41
		c-0.18,0.18-0.37,0.36-0.55,0.55c0.48,0.4,0.96,0.8,1.6,1.02c0.59,0.58,1.17,1.15,1.92,1.55c-0.11,0.11-0.23,0.23-0.34,0.34
		c0.41,0.47,0.82,0.94,1.23,1.41c0.18-0.18,0.37-0.36,0.55-0.55c-0.48-0.4-0.96-0.8-1.6-1.02
		C883.63,214.02,883.05,213.45,882.3,213.05z M856.26,181.56c-0.11,0.11-0.23,0.23-0.34,0.34c0.41,0.47,0.82,0.94,1.23,1.41
		c0.18-0.18,0.37-0.36,0.55-0.55c-0.48-0.4-0.96-0.8-1.6-1.02c-0.59-0.58-1.17-1.15-1.76-1.73c-0.59-0.58-1.17-1.15-1.76-1.73
		c-0.59-0.58-1.17-1.15-1.76-1.73s-1.17-1.15-1.76-1.73c-0.59-0.58-1.17-1.15-1.76-1.73c-0.59-0.58-1.17-1.15-1.76-1.73
		c-0.59-0.58-1.17-1.15-1.76-1.73s-1.17-1.15-1.92-1.55c0.11-0.11,0.23-0.23,0.34-0.34c-0.41-0.47-0.82-0.94-1.22-1.41
		c-0.18,0.18-0.37,0.36-0.55,0.55c0.48,0.4,0.96,0.8,1.6,1.02c0.59,0.58,1.17,1.15,1.76,1.73c0.59,0.58,1.17,1.15,1.76,1.73
		c0.59,0.58,1.17,1.15,1.76,1.73s1.17,1.15,1.76,1.73c0.59,0.58,1.17,1.15,1.76,1.73c0.59,0.58,1.17,1.15,1.76,1.73
		c0.59,0.58,1.17,1.15,1.76,1.73C854.93,180.58,855.52,181.16,856.26,181.56z M771.57,901.14c0.11,0.11,0.23,0.23,0.34,0.34
		c0.48-0.4,0.96-0.8,1.44-1.21c-0.18-0.18-0.37-0.36-0.55-0.55c-0.41,0.47-0.82,0.94-0.86,1.73c-0.11-0.11-0.23-0.23-0.34-0.34
		c-0.48,0.4-0.96,0.8-1.44,1.21c0.18,0.18,0.37,0.36,0.55,0.55C771.12,902.39,771.52,901.92,771.57,901.14z M866.49,194.03
		c0.11-0.11,0.23-0.23,0.34-0.34c-0.41-0.47-0.82-0.94-1.22-1.41c-0.18,0.18-0.37,0.36-0.55,0.55c0.48,0.4,0.96,0.8,1.6,1.02
		c0.59,0.58,1.17,1.15,1.92,1.55c-0.11,0.11-0.23,0.23-0.34,0.34c0.41,0.47,0.82,0.94,1.22,1.41c0.18-0.18,0.37-0.36,0.55-0.55
		c-0.48-0.4-0.96-0.8-1.6-1.02C867.82,195,867.23,194.42,866.49,194.03z M807.06,133.12c-0.11,0.11-0.23,0.23-0.34,0.34
		c0.41,0.47,0.82,0.94,1.22,1.41c0.18-0.18,0.37-0.36,0.55-0.55c-0.48-0.4-0.96-0.8-1.75-0.84c0.11-0.11,0.23-0.23,0.34-0.34
		c-0.41-0.47-0.82-0.94-1.23-1.41c-0.18,0.18-0.37,0.36-0.55,0.55C805.78,132.68,806.26,133.08,807.06,133.12z M769.83,105.81
		c0.11-0.11,0.23-0.23,0.34-0.34c-0.41-0.47-0.82-0.94-1.22-1.41c-0.18,0.18-0.37,0.36-0.55,0.55c0.48,0.4,0.96,0.8,1.6,1.02
		c0.59,0.58,1.17,1.15,1.76,1.73c0.59,0.58,1.17,1.15,1.76,1.73c0.15,2.59,2.18,1.47,3.67,1.55c-0.11,0.11-0.23,0.23-0.34,0.34
		c0.41,0.47,0.82,0.94,1.23,1.41c0.18-0.18,0.37-0.36,0.55-0.55c-0.48-0.4-0.96-0.8-1.6-1.02c-0.15-2.59-2.18-1.47-3.51-1.73
		c-0.59-0.58-1.17-1.15-1.76-1.73C771.16,106.78,770.58,106.21,769.83,105.81z M285.04,77.24c-0.03-0.39-0.07-0.78-0.1-1.17
		c-1.14,0.22-2.29,0.44-4.05,0.78c1.16,0.62,1.63,1.08,2.05,1.05c0.72-0.06,1.41-0.43,1.85-1.84c0.11,0.11,0.23,0.23,0.34,0.34
		c0.48-0.4,0.96-0.8,1.44-1.21c-0.18-0.18-0.37-0.36-0.55-0.55C285.6,75.13,285.19,75.6,285.04,77.24z M678.66,949.34
		c-0.03-0.5-0.05-1-0.08-1.49c-1.14,0.22-2.29,0.44-3.43,0.66c0.05,0.37,0.1,0.74,0.14,1.12c1.12-0.09,2.25-0.19,3.27-2.97
		c0.03,0.5,0.05,1,0.08,1.49c1.14-0.22,2.29-0.44,3.43-0.66c-0.05-0.37-0.1-0.75-0.14-1.12
		C680.81,946.46,679.69,946.56,678.66,949.34z M679.35,69.57c-1.2-1.32-1.54-1.98-1.8-1.94c-0.84,0.12-1.64,0.48-2.46,0.75
		c1.06,0.3,2.12,0.59-0.27-1.02c-2.03-1.61-2.03-1.61-4.94,0C671.85,67.36,673.47,67.36,679.35,69.57z M669.82,951.45
		c-1.73,0.66-4.45-1.6-5.27,1.73c-1.73,0.66-4.45-1.6-5.27,1.73c-1.73,0.66-4.45-1.6-5.27,1.73c-1.73,0.66-4.45-1.6-5.27,1.73
		c-1.73,0.66-4.45-1.6-5.27,1.73c-1.65,0-3.34-0.18-4.95,0.08c-0.76,0.12-1.39,1.08-2.08,1.65c-1.73,0.66-4.45-1.6-5.27,1.73
		c-1.65,0-3.34-0.18-4.95,0.08c-0.76,0.12-1.39,1.08-2.08,1.65c-1.65,0-3.34-0.18-4.95,0.08c-0.76,0.12-1.39,1.07-2.08,1.65
		c-2.23,0-4.47-0.14-6.68,0.08c-0.75,0.08-1.41,1.07-2.1,2.93c-2.92-1.62-5.8-1.61-8.65,0c2.88,0,5.76,0,8.64-1.28
		c2.23,0,4.47,0.14,6.68-0.08c0.75-0.08,1.41-1.07,2.11-1.65c1.65,0,3.34,0.18,4.95-0.08c0.76-0.12,1.39-1.08,2.08-1.65
		c1.65,0,3.34,0.18,4.95-0.08c0.76-0.12,1.39-1.08,2.08-1.65c1.73-0.66,4.45,1.6,5.27-1.73c1.65,0,3.34,0.18,4.95-0.08
		c0.76-0.12,1.39-1.08,2.08-1.65c1.73-0.66,4.45,1.6,5.27-1.73c1.73-0.66,4.45,1.6,5.27-1.73c1.73-0.66,4.45,1.6,5.27-1.73
		c1.73-0.66,4.45,1.6,5.27-1.73c1.73-0.66,4.45,1.6,5.22-3.07c0.03,0.5,0.05,1,0.08,1.49c1.14-0.22,2.29-0.44,3.43-0.66
		c-0.05-0.37-0.1-0.75-0.14-1.12C672.02,949.92,670.9,950.02,669.82,951.45z M421.87,35.81c5.12,0.27,6.87-0.51,10.29-4.42
		C427.78,30.79,424.73,32.63,421.87,35.81z M524.22,39.9c0.02,0.58,0.05,1.15,0.07,1.73c4.87,0,9.74,0.01,14.6-0.05
		c0.2,0,0.39-0.74,0.86-1.68c-4.31,0-8.31,0-12.31,0C526.38,39.9,525.3,39.9,524.22,39.9z M641.85,46.64
		c-2.12,0.3-3.65,0.52-6.34,0.9c2.46,1.48,3.79,2.28,5.68,3.42C641.44,49.32,641.59,48.36,641.85,46.64z M587.23,973.51
		c0-0.29,0-0.58,0-0.86c-2.34,0-4.69,0-7.03,0c0,0.29,0,0.58,0,0.86C582.54,973.51,584.89,973.51,587.23,973.51z M597.77,971.78
		c0-0.29,0-0.58,0-0.86c-2.34,0-4.69,0-7.03,0c0,0.29,0,0.58,0,0.86C593.09,971.78,595.43,971.78,597.77,971.78z M582.3,43.66
		c-0.01,0.5-0.01,1-0.02,1.49c2.17-0.15,4.33-0.29,6.5-0.44c-0.02-0.35-0.04-0.7-0.05-1.06C586.58,43.66,584.44,43.66,582.3,43.66z
		 M402.71,38.6c0,0.29,0,0.58,0,0.86c1.76,0,3.51,0,5.27,0c0-0.29,0-0.58,0-0.86C406.22,38.6,404.47,38.6,402.71,38.6z
		 M472.67,30.95c-0.01-0.51-0.02-1.02-0.03-1.53c-1.57,0.21-3.14,0.42-4.7,0.63c0.02,0.3,0.05,0.6,0.07,0.9
		C469.56,30.95,471.11,30.95,472.67,30.95z M411.83,36.74c0.01,0.51,0.02,1.02,0.03,1.53c1.57-0.21,3.14-0.42,4.7-0.63
		c-0.02-0.3-0.05-0.6-0.07-0.9C414.94,36.74,413.38,36.74,411.83,36.74z M395.96,40.2c0.06,0.5,0.13,1,0.19,1.49
		c0.95-0.22,1.91-0.45,2.86-0.67c-0.05-0.27-0.09-0.55-0.14-0.82C397.9,40.2,396.93,40.2,395.96,40.2z M391.84,43.06
		c-0.03-0.49-0.06-0.99-0.1-1.48c-0.98,0.21-1.96,0.42-2.94,0.63c0.04,0.28,0.08,0.57,0.12,0.85
		C389.9,43.06,390.87,43.06,391.84,43.06z M438.13,33.28c0.06,0.5,0.13,1,0.19,1.49c0.95-0.22,1.91-0.45,2.86-0.67
		c-0.05-0.27-0.09-0.55-0.14-0.82C440.08,33.28,439.1,33.28,438.13,33.28z M706.73,81.99c0,0.19,0,0.38,0,0.58c0.59,0,1.17,0,1.76,0
		c0-0.19,0-0.38,0-0.58C707.9,81.99,707.31,81.99,706.73,81.99z M289.65,72.76c-0.2,0-0.39,0-0.59,0c0,0.58,0,1.15,0,1.73
		c0.2,0,0.39,0,0.59,0C289.65,73.92,289.65,73.34,289.65,72.76z M667.48,64.12c-0.2,0-0.39,0-0.59,0c0,0.58,0,1.15,0,1.73
		c0.2,0,0.39,0,0.59,0C667.48,65.27,667.48,64.69,667.48,64.12z M726.06,908.79c0,0.19,0,0.38,0,0.58c0.59,0,1.17,0,1.76,0
		c0-0.19,0-0.38,0-0.58C727.23,908.79,726.64,908.79,726.06,908.79z M446.06,31.25c-0.2,0-0.39,0-0.59,0c0,0.58,0,1.15,0,1.73
		c0.2,0,0.39,0,0.59,0C446.06,32.4,446.06,31.83,446.06,31.25z M682.71,941.08c0.2,0,0.39,0,0.59,0c0-0.58,0-1.15,0-1.73
		c-0.2,0-0.39,0-0.59,0C682.71,939.92,682.71,940.5,682.71,941.08z M692.67,941.65c0,0.19,0,0.38,0,0.58c0.59,0,1.17,0,1.76,0
		c0-0.19,0-0.38,0-0.58C693.84,941.65,693.25,941.65,692.67,941.65z M689.74,944.54c0.2,0,0.39,0,0.59,0c0-0.58,0-1.15,0-1.73
		c-0.2,0-0.39,0-0.59,0C689.74,943.38,689.74,943.96,689.74,944.54z M685.64,945.69c0-0.19,0-0.38,0-0.58c-0.59,0-1.17,0-1.76,0
		c0,0.19,0,0.38,0,0.58C684.47,945.69,685.05,945.69,685.64,945.69z M151.99,186.93c0.2,0,0.39,0,0.59,0c0-0.58,0-1.15,0-1.73
		c-0.2,0-0.39,0-0.59,0C151.99,185.77,151.99,186.35,151.99,186.93z M878.95,207.11c0-0.19,0-0.38,0-0.58c-0.59,0-1.17,0-1.76,0
		c0,0.19,0,0.38,0,0.58C877.78,207.11,878.36,207.11,878.95,207.11z"/>
	<path d="M165.8,394.98c-5.41-1.79-9.78-3.24-14.79-4.89c0.79-2.42,1.6-4.92,2.45-7.53c24.17,0,48.12,0,72.02,0
		c2.44,1.09,4.92,2.17,7.38,3.28c12.14,5.51,18.39,20.44,16.8,29.92c-0.92,5.54-3.93,10.58-7.68,14.98
		c-5.35,6.25-12.48,10.09-19.61,13.91c-1.44,0.77-2.91,1.5-4.83,2.48c3.19,1.04,5.77,1.87,8.75,2.84
		c7.22,11.67,14.58,23.63,22.05,35.52c0.9,1.43,2.23,2.88,3.72,3.62c4.82,2.39,9.81,4.45,15.53,7c-0.61,1.9-1.4,4.37-2.26,7.09
		c-9.59,0-19.17,0-29.36,0c-4.58-7.14-9.29-14.79-14.29-22.24c-6.06-9.02-10.8-18.85-17.56-27.42c-2.63-3.33-5.49-6.49-8.58-10.13
		c0-0.73,0-2.08,0-3.95c3.31,0,6.47,0,9.63,0c8.81-0.01,15.8-3.84,20.92-10.58c1.68-2.21,2.73-5.64,2.47-8.36
		c-0.51-5.35-1.08-11.15-3.58-15.74c-3.47-6.38-9.13-11.55-17.19-11.93c-7.27-0.34-14.86-1.28-21.14,4.68c0,30.51,0,61.61,0,92.77
		c4.34,4.18,11.72,2.39,16.18,7.64c-0.67,0.93-1.39,1.74-1.88,2.67c-0.37,0.7-0.44,1.55-0.71,2.59c-15.95,0-31.97,0-48.59,0
		c-0.08-1.1-0.18-2.44-0.31-4.17c5.28-4.43,10.69-8.97,15.91-13.34c0-27.21,0.05-54.01-0.06-80.8
		C167.15,401.67,166.3,398.47,165.8,394.98z"/>
	<path d="M765.03,510.51c2.02,0,3.74,0,5.98,0c3.37,3.32,6.94,7.1,10.8,10.58c8.99,8.1,19.84,11.2,31.73,9.84
		c3.26-0.37,6.22-3.3,9.08-4.91c0-3.01,0-5.28,0-8.49c-2.49-1.59-5.32-3.81-8.5-5.35c-5.82-2.83-11.77-5.41-17.78-7.81
		c-5.58-2.23-10.41-5.06-12.19-11.44c1.74-5.75,6.11-9.13,12.11-10.7c-2.01-4.48-5.94-2.46-8.9-3.22
		c-8.29-2.49-14.43-7.66-18.72-14.53c-0.76-2.53-1.91-4.82-2.07-7.17c-0.5-7.68,1.31-14.59,6.89-20.51
		c7.11-7.54,12.86-11.75,21.83-14.63c8.78-2.82,18.13-2.56,26.05,1.38c3.45,1.71,6.83,2.2,10.55,2.12
		c6.11-0.13,12.22-0.04,18.64-0.04c0,2.18,0,4.12,0,6.66c-5.35,0-11.05,0-17.89,0c3.37,6.78,5.69,12.95,4.04,19.65
		c-1.52,2.84-2.96,5.72-4.56,8.52c-4.28,7.48-10.77,12.25-18.8,15.44c-3.03,1.2-5.57,3.6-8.12,5.3c0,2.83,0,5.12,0,8.3
		c3.5,1.65,7.41,3.47,11.29,5.32c6.82,3.26,14.24,4.96,20.7,9.43c3.55,2.45,5.16,5.17,7,8.6c-3.16,7.02-7.16,12.99-13.08,18.1
		c-6.01,5.19-12.43,8.79-20.02,11.08c-1.88,0.57-3.68,1.1-5.61,1.2c-1.75,0.09-3.7,0.51-5.23-0.07c-6.28-2.34-13.07-2.02-19.41-3.94
		c-5.19-1.57-10.38-3.11-15.81-4.74C765.03,526.65,765.03,518.96,765.03,510.51z M813.11,465.35c7.5-6.72,7.25-10.62,4.28-20.85
		c-1.7-5.85-6.78-8.96-15.14-10.27c-1.55-0.24-3.01-1.12-3.54-1.32c-3.51,0.75-6.15,1.32-9.57,2.05c-1.48,2.1-3.37,4.78-4.95,7.03
		c0,3.37,0,6.19,0,8.35c3.27,5.32,4.77,11.13,11.03,13.45C799.75,465.46,802.15,466.15,813.11,465.35z"/>
	<path d="M553.67,391.03c-6.56,0-12.12,0-17.68,0.01c-0.27,0-0.53,0.12-1.14,0.26c0,32.93,0,65.95,0,99.4
		c4.69,1.46,9.83,3.05,15.09,4.69c1.67,3.2-1.49,5.33-2.2,8.07c-15.26,0-30.47,0-46.31,0c-0.15-1.83-0.3-3.72-0.5-6.22
		c4.43-3.33,9.04-6.8,14.09-10.6c0-31.18,0-63.07,0-95.28c-6.11,0-12.17,0-18.32,0c-6.42,9.37-13.02,19-20.09,29.31
		c-1.29-0.45-3.29-1.16-5.21-1.83c0-12.98,0-25.29,0-38.08c4.51,0.56,8.84,1.51,13.19,1.56c17.26,0.18,34.52,0.07,51.78,0.07
		c12.57,0,25.15,0,37.04,0c1.73-0.86,2.9-1.44,4.67-2.32c0,13.81,0,26.89,0,40.17c-1.47,0-2.85,0-4.38,0
		C566.94,410.39,560.15,400.48,553.67,391.03z"/>
	<path d="M629.81,420.44c18.76-0.18,32.75,13.38,34.78,30.91c0.34,2.95,1.23,5.84,1.67,8.78c0.15,1.03-0.16,2.2-0.52,3.21
		c-1.69,4.78-1.39,10.19-4.69,14.47c-2.18,2.83-4.16,5.81-6.43,8.58c-5.58,6.81-12.87,11.71-20.8,15.08
		c-12.39,5.26-26.68,5.32-38.12-6.07c-5.15-5.13-9.3-10.8-11.1-17.9c-0.4-1.58-0.78-3.2-0.84-4.82c-0.13-3.44,0.19-6.91-0.08-10.34
		c-0.72-8.92,3.37-15.93,9.09-22.15c3.09-3.36,5.53-7.11,9.59-9.92C610.25,424.78,620.27,420.43,629.81,420.44z M605.43,471.43
		c1.18,2.97,2.37,5.95,3.8,9.56c2.56,2.53,5.66,5.58,7.85,7.75c3.13,1.14,5.11,2.22,7.22,2.53c2.56,0.37,5.23,0.09,6.92,0.09
		c5.85-2.52,9.74-5.95,11.89-11.52c0.65-3.84,1.87-8.15,1.96-12.49c0.08-4.07-0.71-8.24-1.7-12.22c-1.03-4.12-2.77-8.07-4.44-12.78
		c-3.24-2.57-6.96-5.52-10.17-8.06c-4.34,0-7.86,0.1-11.37-0.02c-4.84-0.16-9.23,2.5-10.35,6.03c-2.11,6.67-4.47,13.58-3.94,20.85
		C606.42,463.89,604,467.63,605.43,471.43z"/>
	<path d="M352.25,475.26c1.19,2.23,2.16,4.06,3.52,6.61c-8.67,7.08-17.37,14.18-26.45,21.59c-2.74,0.29-6.02,0.85-9.25,1.42
		c-8.7,1.52-17.09-1.24-24.54-5.81c-10.37-6.36-13.6-13.94-16.01-24.38c-1.27-5.51-2.01-10.63-0.77-16.24
		c1.94-8.8,6.23-16.15,12.48-22.56c5.67-5.82,11.89-10.74,20.04-12.85c1.54-0.4,2.92-1.43,5.22-2.6c3.09,0,7.16,0.18,11.22-0.04
		c6.02-0.33,10.71,2.42,15.05,5.93c8.83,7.15,12.01,16.84,12.54,27.69c0.09,1.83,0.62,3.64,1.04,6.01c-0.14,0.14-0.97,0.94-2.1,2.03
		c-18.03,0-36.37,0-54.71,0c-0.03,9.89,5.02,20.71,12.59,25.59c4.24,2.73,8.91,6.08,14.35,1.98c7.02,0.19,11.52-4.72,16.76-8.08
		C346.22,479.62,349.07,477.48,352.25,475.26z M298.93,454.73c12.32,0,23.66,0,35.19,0c-1.3-4.97-2.52-9.61-3.9-14.84
		c-1.61-1.53-3.71-3.53-5.89-5.61c-5.1,0-10.37,0-15.38,0C302.11,439.43,299.27,446.28,298.93,454.73z"/>
	<path d="M427.62,441.29c-12.65,0-24.32,0-36.64,0c-2.15,3.18-4.56,6.73-7.23,10.68c-1.12-0.76-2.24-1.51-3.57-2.41
		c0-10.19,0-20.38,0-30.7c4.83,2.04,9.36,3.48,14.51,3.4c16.37-0.26,32.75-0.1,49.13-0.1c1.99,0,3.99,0,6.15,0c0,2.14,0,3.81,0,6.81
		c-15.98,17.51-32.72,35.86-50.22,55.03c12.49,0,23.78,0,36.31,0c2.13-3.19,4.85-7.24,7.69-11.48c1.25,0,2.62,0,4.33,0
		c0,10.79,0,21.56,0,32.37c-23.21-3.15-46.36-0.39-69.39-1.7c-0.59-2.04-1.16-4.05-1.76-6.11c7.32-7.85,15.51-15.55,22.33-24.29
		c4.79-6.13,10.58-11.14,15.69-16.86C419.07,451.31,423.06,446.57,427.62,441.29z"/>
	<path d="M697.64,444.74c-4.34-2.59-8.54-5.09-13.39-7.98c0-1.06,0-2.98,0-5.26c8.49-4.17,17.43-8.56,26.63-13.08
		c1.8,6.02,3.55,11.84,5.32,17.78c5.36-5.27,10.53-10.36,15.85-15.6c3.9,0,7.95,0,12.72,0c2.82,2.12,6.16,4.62,9.32,6.99
		c0,2.19,0,3.89,0,5.49c-3.18,3.94-6.34,7.85-9.06,11.22c-6.57,1.9-6.04-4.4-8.83-6.18c-8.25-1.96-14.08,1.43-18.9,7.6
		c0,14.11,0,28.49,0,42.91c2.65,2.13,11.1,5.84,15.68,6.05c2.75,0.13,4.14,1.29,5.52,3.04c-0.88,1.95-1.65,3.65-2.51,5.55
		c-17.06,0-34.24,0-51.77,0c0-1.32,0-2.65,0-4.78c3.87-3.41,8.31-7.33,13.41-11.83C697.64,473.6,697.64,459.57,697.64,444.74z"/>
	<path d="M847.33,610.78c-3.63,0-6.52,0-9.05,0c-4.81-2.04-4.53-6.91-6.73-10.15c0.77-2.32,1.53-4.6,2.44-7.34
		c2.02-1.11,4.38-2.42,6.29-3.47c3.83,0.91,7.01,1.67,10.38,2.47c0,7.32,0,14.74,0,23.11c-0.99,0.66-2.67,1.77-5.62,3.72
		c-1.82,0-5.53,0-9.39,0c-0.69-0.68-1.51-1.49-2.94-2.89c4.45,0,8.34,0,11.91,0C845.63,614.21,846.33,612.8,847.33,610.78z
		 M837.06,597.45c0,2.79,0,5.3,0,8.52c1.92,0.44,3.81,1.39,5.51,1.13c1.7-0.25,3.21-1.71,4.66-2.55c0-2.44,0-4.71,0-7.29
		c-2.01-1.21-4.09-2.46-6.19-3.72C839.65,594.9,838.21,596.31,837.06,597.45z"/>
	<path d="M557.83,583.07c3.96,3.25,8.44,0.7,13.45,2.4c0.53,0.6,1.84,2.11,3.6,4.14c0.32,3.71,0.01,7.82-5.71,9.97
		c2.05,3.46,4.05,6.82,6.92,11.65c-2.66-0.88-4.16-0.92-4.84-1.68c-2.74-3.06-5.23-6.34-7.61-9.3c-1.72,0.08-2.85,0.14-4.24,0.2
		c0,3.22,0,6.31,0,9.75c-1.21,0.2-2.21,0.37-3.24,0.54C554.82,594.26,555.12,588.03,557.83,583.07z M559.11,588.36
		c0,2.45,0,4.15,0,6.05c1.16,0.91,2.42,1.9,3.75,2.95c2.58-1.11,4.75-2.03,6.46-2.77c0-2.4,0-4.28,0-6.23
		C565.89,588.36,562.8,588.36,559.11,588.36z"/>
	<path d="M710.39,604.1c-1.18,1.82-2.11,4.34-3.93,5.75c-1.8,1.4-4.5,1.68-6.4,2.32c-2.95-0.69-5.61-1.32-8.99-2.11
		c-0.05-1-0.12-2.56-0.2-4.44c4.68,2.71,9.18,1.15,13.82,1.74c0-1.78,0-3.13,0-5.3c-2.68-1.23-5.86-2.7-9.05-4.16
		c-0.11,0.23-0.22,0.46-0.33,0.7c-1.45-1.43-2.89-2.85-4.78-4.71c0.66-2.58,1.4-5.47,2.13-8.29c8.78-4,11.42-3.66,16.29,1.92
		c-3.8,0.93-7.11,1.58-10.33-0.83c-3.74,4.94-3.43,7.19,1.84,8.33C705.66,596.14,708.54,599.12,710.39,604.1z"/>
	<path d="M455.4,597.21c1.34,2.32,2.42,4.19,3.68,6.38c-1,1.91-2.11,4.05-3.04,5.82c-5.46,3.11-10.64,3-16.17,0.59
		c0-0.98,0-2.34,0-4.2c4.29,2.52,8.88,1.07,13.61,1.54c0-1.96,0-3.32,0-4.58c-3.65-4.55-11.07-3.01-14.16-9.53
		c0.59-2.14,1.38-5,2.13-7.76c8.76-3.7,12.03-3.34,15.76,1.75c-3.32,2.42-6.27,0.53-9.6-1.09c-1.23,1.6-2.44,3.19-3.89,5.08
		C446.09,594.63,449.99,596.67,455.4,597.21z"/>
	<path d="M603.35,581.46c1.09,0,1.88,0,3.27,0c0,3.43,0,6.72,0,10.16c6.25-1.79,6.25-1.79,11.26,0.05
		c3.73,4.24,2.56,9.39,2.79,14.93c-2.35,1.74-4.98,3.69-6.89,5.11c-3.89-0.55-7.07-0.99-10.43-1.47
		C603.35,600.73,603.35,591.15,603.35,581.46z M614.47,595.14c-1.76,0-3.51,0-5.27,0c-0.83,0.82-1.65,1.63-2.4,2.37
		c0,2.59,0,5.1,0,7.42c3.44,3.37,6.64,3.37,10.08,0c0-2.32,0-4.83,0-7.42C616.12,596.77,615.29,595.95,614.47,595.14z"/>
	<path d="M626.19,581.46c1.08,0,1.87,0,3.25,0c0,3.41,0,6.72,0,10.39c2.94-0.87,5.21-1.55,7.61-2.27c2.08,2.3,3.99,4.42,6.32,6.99
		c0,2.64,0,6.04,0,10.26c-2.43,1.72-5.31,3.75-7.63,5.39c-3.55-0.78-6.46-1.41-9.55-2.09C626.19,600.72,626.19,591.15,626.19,581.46
		z M640.3,597.44c-2.7-1.52-4.74-2.67-6.16-3.47c-1.87,1.42-3.46,2.63-4.62,3.51c0,2.89,0,5.15,0,7.21c2.31,3.5,5.37,2.71,8.68,2.11
		C638.92,603.6,639.61,600.53,640.3,597.44z"/>
	<path d="M495.9,609.94c-3.86-4.09-3.92-8.17-3.22-12.18c1.26-4.46,4.3-6.92,9.53-7.98c2.08,1.01,4.74,2.3,7.45,3.61
		c0,2.89,0,5.39,0,8.5c-3.76,0-7.7,0-12.67,0c1.07,2.22,1.71,3.56,2.57,5.35c3.39,0,6.77,0,9.98,0c0.19,1.13,0.28,1.67,0.42,2.53
		c-2.15,0.74-4.36,1.51-7.07,2.45C500.94,611.59,498.38,610.75,495.9,609.94z M497.2,596.74c0.25,0.64,0.5,1.28,0.75,1.92
		c2.82-0.33,5.73,0.52,9.62-1.26c-2.38-1.68-3.97-2.81-5.54-3.93C500.43,594.55,498.82,595.64,497.2,596.74z"/>
	<path d="M656.99,589.65c2.27,1.19,4.66,2.43,7.23,3.78c0,2.89,0,5.59,0,8.9c-4.14,0-8.07,0-12.94,0c1.46,2.2,2.36,3.54,3.36,5.05
		c3.22,0,6.35,0,10.59,0c-1.09,1.57-1.5,2.84-2.34,3.24c-1.68,0.8-3.59,1.13-5.79,1.76c-1.55-2.69-6.08-0.42-7.58-3.63
		c-1.23-2.64-2.39-5.61-2.4-8.44C647.09,594.32,651.12,591.3,656.99,589.65z M652.42,598.29c2.83,0,5.56,0,8.46,0
		c0-1.01,0-1.78,0-2.86c-2.83,0-5.56,0-8.46,0C652.42,596.45,652.42,597.22,652.42,598.29z"/>
	<path d="M810.71,592.17c3.59-0.57,6.84-1.08,11.36-1.79c1.13,0.65,3.48,2,5.75,3.31c0,5.72,0,11.1,0,16.68
		c-0.93,0.15-1.72,0.27-2.94,0.46c0-4.37,0-8.58,0-12.44c-3.55-3.07-3.55-3.07-9.14-3.03c0,4.98,0,10.02,0,15.18
		c-1.98,0-3.35,0-5.02,0C810.71,604.48,810.71,598.52,810.71,592.17z"/>
	<path d="M592.8,604.42c0-4.01,0-8.26,0-12.57c1.68,0,3.06,0,4.7,0c0,6.12,0,12.09,0,18.69c-5.58-0.3-11.49,1.61-17.12-1.55
		c0-5.9,0-11.28,0-16.91c0.79-0.17,1.58-0.35,3.03-0.66c0,4.67,0,9.11,0,13.12C588.27,607.89,588.27,607.89,592.8,604.42z"/>
	<path d="M766.65,594.48c0-0.73,0-1.5,0-2.54c2.7,0,5.23,0,8,0c0.6,0.59,1.42,1.4,2.17,2.14c0,5.43,0,10.8,0,16.39
		c-4.47,0-8.76,0-13.22,0c-0.65-0.64-1.47-1.44-2.16-2.13c0-2.63,0-5.13,0-7.75c2.23-1.29,4.34-2.51,6.44-3.73
		c1.66,0.64,3.3,1.27,5.33,2.05C772.45,594.43,768.89,595.67,766.65,594.48z M774.07,602.35c-3.55,0-6.27,0-9.41,0
		c0.11,1.8,0.21,3.33,0.29,4.65c2.53,0,4.46,0,6.6,0C772.33,605.58,773.04,604.25,774.07,602.35z"/>
	<path d="M524.96,591.23c8.49,1.53,5.76,9.8,10.29,12.26c1.83-4.11,3.62-8.13,6.22-13.94c1.05,2.91,2.04,4.2,1.73,4.99
		c-3.21,8.14-6.63,16.21-10.05,24.43c-2.67,0-4.83,0-8.19,0c2.14-1.55,3.49-2.53,5.72-4.15c0.31-0.59,1.18-2.24,2.06-3.9
		C530.33,604.8,527.9,598.67,524.96,591.23z"/>
	<path d="M468.93,597.32c0.72,0.38,1.89,0.99,3.3,1.73c0.41-1.23,0.66-1.98,1.12-3.38c-2.61-0.34-4.95-0.64-7.24-0.94
		c-0.07-0.88-0.11-1.44-0.2-2.66c2.7-0.17,5.4-0.33,7.88-0.48c0.88,0.87,1.5,1.47,2.42,2.38c0,5.26,0,10.82,0,16.56
		c-3.66,0-7.1,0-11.36,0c-0.98-1.18-2.42-2.9-4.33-5.2c0.54-1.54,1.33-3.8,2.12-6.06C464.69,598.64,466.73,598.01,468.93,597.32z
		 M472.71,607.09c0-2.11,0-3.43,0-4.5c-1.72-0.75-3.08-1.34-4.44-1.94c-2.1,1.74-3.34,3.7-1.62,6.44
		C468.57,607.09,470.5,607.09,472.71,607.09z"/>
	<path d="M731.03,610.53c-5.09,0-9.96,0-14.81,0c-4.15-5.86-1.84-12.32-2.6-18.7c2.08,0,3.45,0,5.42,0
		c-4.19,5.17-0.24,9.85,0.29,14.92c2.94,0.82,5.91,1.29,8.3-1.95c0.95-3.58-1.39-7.25-0.32-11c0.08-0.27-0.76-0.79-1.69-1.71
		c2.01-0.19,3.55-0.34,5.42-0.52C731.03,598.08,731.03,604.22,731.03,610.53z"/>
	<path d="M480.27,593.67c0.54-2.28,0.93-4.38,1.55-6.42c0.54-1.77,1.32-3.46,2.04-5.31c1.29-0.65,2.73-1.38,4.38-2.21
		c0.8,1.02,1.79,2.28,3.16,4.04c-1.63,0.58-2.59,0.92-3.97,1.41c0,1.61,0,3.51,0,5.78c0.74,0.35,1.92,0.91,3.78,1.79
		c-1.26,1.14-2.28,2.06-4.11,3.73c0,3.89,0,8.91,0,13.88c-5.23,0.09-5.26,0.09-5.3-3.1c-0.04-2.86,0.18-5.74-0.08-8.58
		C481.55,596.89,480.72,595.14,480.27,593.67z"/>
	<path d="M794.15,590.14c1,1.31,1.81,2.37,2.54,3.33c-0.67,0.83-0.99,1.59-1.34,1.6c-2.9,0.1-5.81,0.05-8.78,0.05
		c-0.67,2.03-1.34,4.04-2.11,6.38c0.98,1.6,2.24,3.64,3.58,5.81c2.74,0,5.28,0,8.07,0c1.06,4.61-4.02,2.89-4.85,5.15
		c-4.04-2.05-9.78-1.68-10.43-8.08c-0.46-3.86-0.74-8.2,2.76-11.28C786.32,590.7,789.67,589.23,794.15,590.14z"/>
	<path d="M752.7,595.71c-1.87-0.63-2.87-0.97-4.44-1.5c1.34-1.85,2.45-3.38,3.04-4.19c0.54-3.2,0.96-5.74,1.42-8.48
		c2.06,0,4.01,0,6.1,0c1.65,2.45,0.3,3.25-2.54,3.43c0,1.88,0,3.79,0,6.03c0.79,0.36,1.98,0.92,3.16,1.46c0,0.64,0,1.21,0,2.03
		c-0.92,0.3-1.93,0.63-3.52,1.15c0,4.79,0,9.81,0,14.91c-1.37,0-2.15,0-3.22,0C752.7,605.62,752.7,600.82,752.7,595.71z"/>
	<path d="M524.22,594.21c-1.66,0.45-3.32,0.91-5.27,1.44c0,3.48,0,7.14,0,11.19c1.36,0.23,2.97,0.49,4.75,0.79
		c0.08,0.81,0.15,1.59,0.26,2.73c-2.91,0-5.66,0-9.02,0c0-4.97,0.06-9.78-0.07-14.59c-0.02-0.64-1.01-1.25-1.2-1.47
		c0.75-3.33,1.4-6.21,2.1-9.31c0.62-0.06,1.41-0.13,2.83-0.26c0,2.32,0,4.46,0,6.49c2.22,0.41,3.82,0.71,5.42,1.01
		C524.09,592.89,524.16,593.55,524.22,594.21z"/>
	<path d="M747.05,590.78c0,0.95,0,2.06,0,3.33c-2.24,0.93-4.65,1.93-7.08,2.94c0,4.78,0,8.99,0,13.35c-1.02,0.12-1.8,0.21-2.98,0.35
		c0-6.27,0-12.39,0-18.66C740.08,591.69,743.26,591.27,747.05,590.78z"/>
	<path d="M670.13,591.94c2.25-0.21,4.22-0.33,6.17-0.64c0.47-0.07,0.83-0.76,1.38-1.3c0.79,0.72,1.58,1.44,2.8,2.55
		c-2.25,1.54-4.37,2.99-7.06,4.83c0,4.08,0,8.55,0,13.14c-1.4,0-2.19,0-3.28,0C670.13,604.49,670.13,598.53,670.13,591.94z"/>
	<path d="M801.92,591.84c1.04,0,1.83,0,2.91,0c0,6.25,0,12.4,0,18.7c-1.04,0-1.83,0-2.91,0
		C801.92,604.29,801.92,598.14,801.92,591.84z"/>
	<path d="M900.04,240.55c-2.9-2.46-6.3-7.49-7.03-10.38c1.17,0.58,2.34,1.15,3.51,1.73c0.59,0.58,1.17,1.15,1.76,1.73
		c0.39,1.25,0.84,2.49,1.17,3.76C899.71,238.42,899.84,239.49,900.04,240.55z"/>
	<path d="M805.14,861.51c2.29-3.09,3.99-6.91,8.79-6.92c-1.99,2.36-3.98,4.73-5.83,6.92C806.88,861.51,806.01,861.51,805.14,861.51z
		"/>
	<path d="M802.08,583.03c1,0,1.57,0,2.72,0c0.13,1.49,0.27,3.02,0.42,4.78c-1.09,0.22-1.87,0.37-3.14,0.63
		C802.08,586.49,802.08,584.76,802.08,583.03z"/>
	<path d="M907.06,250.92c-2.77-0.68-3.8-2.51-3.51-5.19C906.32,246.41,907.35,248.24,907.06,250.92z"/>
	<path d="M903.55,245.74c-2.77-0.68-3.8-2.51-3.51-5.19C902.81,241.22,903.83,243.05,903.55,245.74z"/>
	<path d="M638.19,60.66c-1.73-0.66-4.45,1.6-5.27-1.73C634.65,59.59,637.37,57.32,638.19,60.66z"/>
	<path d="M715.51,90.06c1.33,0.26,3.36-0.86,3.51,1.73C717.7,91.53,715.66,92.65,715.51,90.06z"/>
	<path d="M908.82,254.38c-2.63-0.15-1.49-2.15-1.76-3.46C909.69,251.07,908.56,253.07,908.82,254.38z"/>
	<path d="M910.58,257.84c-2.63-0.15-1.49-2.15-1.76-3.46C911.45,254.53,910.31,256.53,910.58,257.84z"/>
	<path d="M718.96,921.03c0.7-0.24,1.39-0.61,2.11-0.66c0.42-0.03,0.89,0.43,2.05,1.05c-1.76,0.34-2.91,0.56-4.05,0.78
		C719.03,921.81,718.99,921.42,718.96,921.03z"/>
	<path d="M628.66,56.93c2.14,0.6,3.2,0.9,4.26,1.19c-0.82,0.27-1.62,0.63-2.46,0.75C630.21,58.9,629.86,58.25,628.66,56.93z"/>
	<path d="M719.03,91.79c1.33,0.26,3.36-0.86,3.51,1.73C721.21,93.26,719.18,94.38,719.03,91.79z"/>
	<path d="M726.89,95.54c-2.23-0.62-3.29-0.92-4.35-1.22c0.82-0.27,1.62-0.63,2.46-0.75C725.26,93.54,725.62,94.18,726.89,95.54z"/>
	<path d="M727.82,95.83c0.59,0,1.17,0,1.76,0c0,0.19,0,0.38,0,0.58c-0.59,0-1.17,0-1.76,0C727.82,96.21,727.82,96.02,727.82,95.83z"
		/>
	<path d="M855.92,826.76c0.41-0.47,0.82-0.94,1.23-1.41c0.18,0.18,0.37,0.36,0.55,0.55c-0.48,0.4-0.96,0.8-1.44,1.21
		C856.15,826.98,856.03,826.87,855.92,826.76z"/>
	<path d="M856.1,826.92c-0.59,0.58-1.17,1.15-1.76,1.73C854.93,828.07,855.52,827.49,856.1,826.92z"/>
	<path d="M852.59,830.38c0.59-0.58,1.17-1.15,1.76-1.73C853.76,829.22,853.17,829.8,852.59,830.38z"/>
	<path d="M820.77,847.52c0.41-0.47,0.82-0.94,1.23-1.41c0.18,0.18,0.37,0.36,0.55,0.55c-0.48,0.4-0.96,0.8-1.44,1.21
		C821,847.74,820.89,847.63,820.77,847.52z"/>
	<path d="M819.2,849.4c0.59-0.58,1.17-1.15,1.76-1.73C820.37,848.25,819.78,848.83,819.2,849.4z"/>
	<path d="M817.44,851.13c0.59-0.58,1.17-1.15,1.76-1.73C818.61,849.98,818.03,850.56,817.44,851.13z"/>
	<path d="M817.44,851.13c-0.59,0.58-1.17,1.15-1.76,1.73C816.27,852.28,816.85,851.71,817.44,851.13z"/>
	<path d="M815.68,852.86c-0.59,0.58-1.17,1.15-1.76,1.73C814.51,854.01,815.1,853.44,815.68,852.86z"/>
</g>
</svg>
